<?xml version="1.0" encoding="utf-8"?>
<svg xmlns="http://www.w3.org/2000/svg"
    xmlns:xlink="http://www.w3.org/1999/xlink"
    width="520" height="520" viewBox="-10 -10 520 520">
<defs>
<style type="text/css"><![CDATA[
line {
    stroke: #000000;
    stroke-linecap: square;
    stroke-width: 5;
}
]]></style>
</defs>
<line x1="33.333333333333336" y1="0.0" x2="33.333333333333336" y2="33.333333333333336"/>
<line x1="0.0" y1="66.66666666666667" x2="33.333333333333336" y2="66.66666666666667"/>
<line x1="33.333333333333336" y1="100.0" x2="33.333333333333336" y2="133.33333333333334"/>
<line x1="0.0" y1="166.66666666666669" x2="33.333333333333336" y2="166.66666666666669"/>
<line x1="0.0" y1="233.33333333333334" x2="33.333333333333336" y2="233.33333333333334"/>
<line x1="33.333333333333336" y1="300.0" x2="33.333333333333336" y2="333.33333333333337"/>
<line x1="33.333333333333336" y1="333.33333333333337" x2="33.333333333333336" y2="366.6666666666667"/>
<line x1="33.333333333333336" y1="366.6666666666667" x2="33.333333333333336" y2="400.0"/>
<line x1="0.0" y1="433.33333333333337" x2="33.333333333333336" y2="433.33333333333337"/>
<line x1="33.333333333333336" y1="433.33333333333337" x2="33.333333333333336" y2="466.6666666666667"/>
<line x1="0.0" y1="500.00000000000006" x2="33.333333333333336" y2="500.00000000000006"/>
<line x1="33.333333333333336" y1="66.66666666666667" x2="66.66666666666667" y2="66.66666666666667"/>
<line x1="66.66666666666667" y1="33.333333333333336" x2="66.66666666666667" y2="66.66666666666667"/>
<line x1="33.333333333333336" y1="100.0" x2="66.66666666666667" y2="100.0"/>
<line x1="33.333333333333336" y1="133.33333333333334" x2="66.66666666666667" y2="133.33333333333334"/>
<line x1="66.66666666666667" y1="133.33333333333334" x2="66.66666666666667" y2="166.66666666666669"/>
<line x1="33.333333333333336" y1="200.0" x2="66.66666666666667" y2="200.0"/>
<line x1="66.66666666666667" y1="166.66666666666669" x2="66.66666666666667" y2="200.0"/>
<line x1="33.333333333333336" y1="233.33333333333334" x2="66.66666666666667" y2="233.33333333333334"/>
<line x1="33.333333333333336" y1="266.6666666666667" x2="66.66666666666667" y2="266.6666666666667"/>
<line x1="66.66666666666667" y1="266.6666666666667" x2="66.66666666666667" y2="300.0"/>
<line x1="66.66666666666667" y1="300.0" x2="66.66666666666667" y2="333.33333333333337"/>
<line x1="66.66666666666667" y1="333.33333333333337" x2="66.66666666666667" y2="366.6666666666667"/>
<line x1="33.333333333333336" y1="400.0" x2="66.66666666666667" y2="400.0"/>
<line x1="66.66666666666667" y1="400.0" x2="66.66666666666667" y2="433.33333333333337"/>
<line x1="33.333333333333336" y1="466.6666666666667" x2="66.66666666666667" y2="466.6666666666667"/>
<line x1="33.333333333333336" y1="500.00000000000006" x2="66.66666666666667" y2="500.00000000000006"/>
<line x1="100.0" y1="0.0" x2="100.0" y2="33.333333333333336"/>
<line x1="100.0" y1="33.333333333333336" x2="100.0" y2="66.66666666666667"/>
<line x1="66.66666666666667" y1="100.0" x2="100.0" y2="100.0"/>
<line x1="100.0" y1="66.66666666666667" x2="100.0" y2="100.0"/>
<line x1="100.0" y1="133.33333333333334" x2="100.0" y2="166.66666666666669"/>
<line x1="66.66666666666667" y1="200.0" x2="100.0" y2="200.0"/>
<line x1="66.66666666666667" y1="233.33333333333334" x2="100.0" y2="233.33333333333334"/>
<line x1="100.0" y1="233.33333333333334" x2="100.0" y2="266.6666666666667"/>
<line x1="100.0" y1="266.6666666666667" x2="100.0" y2="300.0"/>
<line x1="66.66666666666667" y1="333.33333333333337" x2="100.0" y2="333.33333333333337"/>
<line x1="66.66666666666667" y1="366.6666666666667" x2="100.0" y2="366.6666666666667"/>
<line x1="100.0" y1="366.6666666666667" x2="100.0" y2="400.0"/>
<line x1="66.66666666666667" y1="433.33333333333337" x2="100.0" y2="433.33333333333337"/>
<line x1="100.0" y1="433.33333333333337" x2="100.0" y2="466.6666666666667"/>
<line x1="66.66666666666667" y1="500.00000000000006" x2="100.0" y2="500.00000000000006"/>
<line x1="100.0" y1="66.66666666666667" x2="133.33333333333334" y2="66.66666666666667"/>
<line x1="100.0" y1="133.33333333333334" x2="133.33333333333334" y2="133.33333333333334"/>
<line x1="133.33333333333334" y1="100.0" x2="133.33333333333334" y2="133.33333333333334"/>
<line x1="100.0" y1="200.0" x2="133.33333333333334" y2="200.0"/>
<line x1="133.33333333333334" y1="166.66666666666669" x2="133.33333333333334" y2="200.0"/>
<line x1="100.0" y1="233.33333333333334" x2="133.33333333333334" y2="233.33333333333334"/>
<line x1="133.33333333333334" y1="233.33333333333334" x2="133.33333333333334" y2="266.6666666666667"/>
<line x1="133.33333333333334" y1="266.6666666666667" x2="133.33333333333334" y2="300.0"/>
<line x1="100.0" y1="333.33333333333337" x2="133.33333333333334" y2="333.33333333333337"/>
<line x1="100.0" y1="366.6666666666667" x2="133.33333333333334" y2="366.6666666666667"/>
<line x1="100.0" y1="433.33333333333337" x2="133.33333333333334" y2="433.33333333333337"/>
<line x1="133.33333333333334" y1="400.0" x2="133.33333333333334" y2="433.33333333333337"/>
<line x1="100.0" y1="500.00000000000006" x2="133.33333333333334" y2="500.00000000000006"/>
<line x1="133.33333333333334" y1="466.6666666666667" x2="133.33333333333334" y2="500.00000000000006"/>
<line x1="133.33333333333334" y1="33.333333333333336" x2="166.66666666666669" y2="33.333333333333336"/>
<line x1="133.33333333333334" y1="66.66666666666667" x2="166.66666666666669" y2="66.66666666666667"/>
<line x1="166.66666666666669" y1="66.66666666666667" x2="166.66666666666669" y2="100.0"/>
<line x1="133.33333333333334" y1="133.33333333333334" x2="166.66666666666669" y2="133.33333333333334"/>
<line x1="166.66666666666669" y1="100.0" x2="166.66666666666669" y2="133.33333333333334"/>
<line x1="133.33333333333334" y1="166.66666666666669" x2="166.66666666666669" y2="166.66666666666669"/>
<line x1="133.33333333333334" y1="233.33333333333334" x2="166.66666666666669" y2="233.33333333333334"/>
<line x1="166.66666666666669" y1="200.0" x2="166.66666666666669" y2="233.33333333333334"/>
<line x1="133.33333333333334" y1="300.0" x2="166.66666666666669" y2="300.0"/>
<line x1="133.33333333333334" y1="333.33333333333337" x2="166.66666666666669" y2="333.33333333333337"/>
<line x1="133.33333333333334" y1="366.6666666666667" x2="166.66666666666669" y2="366.6666666666667"/>
<line x1="133.33333333333334" y1="400.0" x2="166.66666666666669" y2="400.0"/>
<line x1="133.33333333333334" y1="466.6666666666667" x2="166.66666666666669" y2="466.6666666666667"/>
<line x1="166.66666666666669" y1="433.33333333333337" x2="166.66666666666669" y2="466.6666666666667"/>
<line x1="133.33333333333334" y1="500.00000000000006" x2="166.66666666666669" y2="500.00000000000006"/>
<line x1="166.66666666666669" y1="33.333333333333336" x2="200.0" y2="33.333333333333336"/>
<line x1="200.0" y1="33.333333333333336" x2="200.0" y2="66.66666666666667"/>
<line x1="200.0" y1="66.66666666666667" x2="200.0" y2="100.0"/>
<line x1="166.66666666666669" y1="133.33333333333334" x2="200.0" y2="133.33333333333334"/>
<line x1="166.66666666666669" y1="166.66666666666669" x2="200.0" y2="166.66666666666669"/>
<line x1="166.66666666666669" y1="200.0" x2="200.0" y2="200.0"/>
<line x1="166.66666666666669" y1="266.6666666666667" x2="200.0" y2="266.6666666666667"/>
<line x1="200.0" y1="233.33333333333334" x2="200.0" y2="266.6666666666667"/>
<line x1="166.66666666666669" y1="300.0" x2="200.0" y2="300.0"/>
<line x1="200.0" y1="300.0" x2="200.0" y2="333.33333333333337"/>
<line x1="166.66666666666669" y1="366.6666666666667" x2="200.0" y2="366.6666666666667"/>
<line x1="200.0" y1="333.33333333333337" x2="200.0" y2="366.6666666666667"/>
<line x1="166.66666666666669" y1="400.0" x2="200.0" y2="400.0"/>
<line x1="166.66666666666669" y1="433.33333333333337" x2="200.0" y2="433.33333333333337"/>
<line x1="166.66666666666669" y1="500.00000000000006" x2="200.0" y2="500.00000000000006"/>
<line x1="200.0" y1="33.333333333333336" x2="233.33333333333334" y2="33.333333333333336"/>
<line x1="233.33333333333334" y1="66.66666666666667" x2="233.33333333333334" y2="100.0"/>
<line x1="233.33333333333334" y1="100.0" x2="233.33333333333334" y2="133.33333333333334"/>
<line x1="200.0" y1="166.66666666666669" x2="233.33333333333334" y2="166.66666666666669"/>
<line x1="233.33333333333334" y1="133.33333333333334" x2="233.33333333333334" y2="166.66666666666669"/>
<line x1="200.0" y1="200.0" x2="233.33333333333334" y2="200.0"/>
<line x1="233.33333333333334" y1="200.0" x2="233.33333333333334" y2="233.33333333333334"/>
<line x1="200.0" y1="266.6666666666667" x2="233.33333333333334" y2="266.6666666666667"/>
<line x1="233.33333333333334" y1="266.6666666666667" x2="233.33333333333334" y2="300.0"/>
<line x1="233.33333333333334" y1="300.0" x2="233.33333333333334" y2="333.33333333333337"/>
<line x1="233.33333333333334" y1="333.33333333333337" x2="233.33333333333334" y2="366.6666666666667"/>
<line x1="200.0" y1="400.0" x2="233.33333333333334" y2="400.0"/>
<line x1="233.33333333333334" y1="366.6666666666667" x2="233.33333333333334" y2="400.0"/>
<line x1="200.0" y1="433.33333333333337" x2="233.33333333333334" y2="433.33333333333337"/>
<line x1="200.0" y1="466.6666666666667" x2="233.33333333333334" y2="466.6666666666667"/>
<line x1="233.33333333333334" y1="433.33333333333337" x2="233.33333333333334" y2="466.6666666666667"/>
<line x1="200.0" y1="500.00000000000006" x2="233.33333333333334" y2="500.00000000000006"/>
<line x1="233.33333333333334" y1="33.333333333333336" x2="266.6666666666667" y2="33.333333333333336"/>
<line x1="233.33333333333334" y1="66.66666666666667" x2="266.6666666666667" y2="66.66666666666667"/>
<line x1="266.6666666666667" y1="33.333333333333336" x2="266.6666666666667" y2="66.66666666666667"/>
<line x1="266.6666666666667" y1="100.0" x2="266.6666666666667" y2="133.33333333333334"/>
<line x1="233.33333333333334" y1="166.66666666666669" x2="266.6666666666667" y2="166.66666666666669"/>
<line x1="266.6666666666667" y1="166.66666666666669" x2="266.6666666666667" y2="200.0"/>
<line x1="233.33333333333334" y1="233.33333333333334" x2="266.6666666666667" y2="233.33333333333334"/>
<line x1="233.33333333333334" y1="266.6666666666667" x2="266.6666666666667" y2="266.6666666666667"/>
<line x1="266.6666666666667" y1="300.0" x2="266.6666666666667" y2="333.33333333333337"/>
<line x1="266.6666666666667" y1="333.33333333333337" x2="266.6666666666667" y2="366.6666666666667"/>
<line x1="233.33333333333334" y1="400.0" x2="266.6666666666667" y2="400.0"/>
<line x1="233.33333333333334" y1="433.33333333333337" x2="266.6666666666667" y2="433.33333333333337"/>
<line x1="233.33333333333334" y1="500.00000000000006" x2="266.6666666666667" y2="500.00000000000006"/>
<line x1="300.0" y1="33.333333333333336" x2="300.0" y2="66.66666666666667"/>
<line x1="266.6666666666667" y1="100.0" x2="300.0" y2="100.0"/>
<line x1="300.0" y1="66.66666666666667" x2="300.0" y2="100.0"/>
<line x1="266.6666666666667" y1="133.33333333333334" x2="300.0" y2="133.33333333333334"/>
<line x1="300.0" y1="133.33333333333334" x2="300.0" y2="166.66666666666669"/>
<line x1="300.0" y1="166.66666666666669" x2="300.0" y2="200.0"/>
<line x1="266.6666666666667" y1="233.33333333333334" x2="300.0" y2="233.33333333333334"/>
<line x1="300.0" y1="200.0" x2="300.0" y2="233.33333333333334"/>
<line x1="266.6666666666667" y1="266.6666666666667" x2="300.0" y2="266.6666666666667"/>
<line x1="266.6666666666667" y1="300.0" x2="300.0" y2="300.0"/>
<line x1="266.6666666666667" y1="333.33333333333337" x2="300.0" y2="333.33333333333337"/>
<line x1="266.6666666666667" y1="400.0" x2="300.0" y2="400.0"/>
<line x1="300.0" y1="400.0" x2="300.0" y2="433.33333333333337"/>
<line x1="266.6666666666667" y1="466.6666666666667" x2="300.0" y2="466.6666666666667"/>
<line x1="300.0" y1="433.33333333333337" x2="300.0" y2="466.6666666666667"/>
<line x1="266.6666666666667" y1="500.00000000000006" x2="300.0" y2="500.00000000000006"/>
<line x1="333.33333333333337" y1="0.0" x2="333.33333333333337" y2="33.333333333333336"/>
<line x1="333.33333333333337" y1="33.333333333333336" x2="333.33333333333337" y2="66.66666666666667"/>
<line x1="333.33333333333337" y1="66.66666666666667" x2="333.33333333333337" y2="100.0"/>
<line x1="333.33333333333337" y1="100.0" x2="333.33333333333337" y2="133.33333333333334"/>
<line x1="333.33333333333337" y1="133.33333333333334" x2="333.33333333333337" y2="166.66666666666669"/>
<line x1="300.0" y1="200.0" x2="333.33333333333337" y2="200.0"/>
<line x1="333.33333333333337" y1="200.0" x2="333.33333333333337" y2="233.33333333333334"/>
<line x1="300.0" y1="266.6666666666667" x2="333.33333333333337" y2="266.6666666666667"/>
<line x1="333.33333333333337" y1="266.6666666666667" x2="333.33333333333337" y2="300.0"/>
<line x1="300.0" y1="333.33333333333337" x2="333.33333333333337" y2="333.33333333333337"/>
<line x1="300.0" y1="366.6666666666667" x2="333.33333333333337" y2="366.6666666666667"/>
<line x1="300.0" y1="400.0" x2="333.33333333333337" y2="400.0"/>
<line x1="300.0" y1="433.33333333333337" x2="333.33333333333337" y2="433.33333333333337"/>
<line x1="300.0" y1="500.00000000000006" x2="333.33333333333337" y2="500.00000000000006"/>
<line x1="333.33333333333337" y1="466.6666666666667" x2="333.33333333333337" y2="500.00000000000006"/>
<line x1="333.33333333333337" y1="33.333333333333336" x2="366.6666666666667" y2="33.333333333333336"/>
<line x1="366.6666666666667" y1="100.0" x2="366.6666666666667" y2="133.33333333333334"/>
<line x1="333.33333333333337" y1="166.66666666666669" x2="366.6666666666667" y2="166.66666666666669"/>
<line x1="366.6666666666667" y1="133.33333333333334" x2="366.6666666666667" y2="166.66666666666669"/>
<line x1="333.33333333333337" y1="200.0" x2="366.6666666666667" y2="200.0"/>
<line x1="333.33333333333337" y1="266.6666666666667" x2="366.6666666666667" y2="266.6666666666667"/>
<line x1="366.6666666666667" y1="233.33333333333334" x2="366.6666666666667" y2="266.6666666666667"/>
<line x1="333.33333333333337" y1="333.33333333333337" x2="366.6666666666667" y2="333.33333333333337"/>
<line x1="366.6666666666667" y1="300.0" x2="366.6666666666667" y2="333.33333333333337"/>
<line x1="333.33333333333337" y1="366.6666666666667" x2="366.6666666666667" y2="366.6666666666667"/>
<line x1="366.6666666666667" y1="366.6666666666667" x2="366.6666666666667" y2="400.0"/>
<line x1="333.33333333333337" y1="433.33333333333337" x2="366.6666666666667" y2="433.33333333333337"/>
<line x1="333.33333333333337" y1="466.6666666666667" x2="366.6666666666667" y2="466.6666666666667"/>
<line x1="333.33333333333337" y1="500.00000000000006" x2="366.6666666666667" y2="500.00000000000006"/>
<line x1="366.6666666666667" y1="66.66666666666667" x2="400.0" y2="66.66666666666667"/>
<line x1="400.0" y1="33.333333333333336" x2="400.0" y2="66.66666666666667"/>
<line x1="400.0" y1="66.66666666666667" x2="400.0" y2="100.0"/>
<line x1="400.0" y1="100.0" x2="400.0" y2="133.33333333333334"/>
<line x1="366.6666666666667" y1="166.66666666666669" x2="400.0" y2="166.66666666666669"/>
<line x1="400.0" y1="166.66666666666669" x2="400.0" y2="200.0"/>
<line x1="366.6666666666667" y1="233.33333333333334" x2="400.0" y2="233.33333333333334"/>
<line x1="400.0" y1="200.0" x2="400.0" y2="233.33333333333334"/>
<line x1="366.6666666666667" y1="266.6666666666667" x2="400.0" y2="266.6666666666667"/>
<line x1="366.6666666666667" y1="300.0" x2="400.0" y2="300.0"/>
<line x1="366.6666666666667" y1="333.33333333333337" x2="400.0" y2="333.33333333333337"/>
<line x1="366.6666666666667" y1="366.6666666666667" x2="400.0" y2="366.6666666666667"/>
<line x1="400.0" y1="366.6666666666667" x2="400.0" y2="400.0"/>
<line x1="366.6666666666667" y1="433.33333333333337" x2="400.0" y2="433.33333333333337"/>
<line x1="400.0" y1="400.0" x2="400.0" y2="433.33333333333337"/>
<line x1="400.0" y1="433.33333333333337" x2="400.0" y2="466.6666666666667"/>
<line x1="366.6666666666667" y1="500.00000000000006" x2="400.0" y2="500.00000000000006"/>
<line x1="400.0" y1="33.333333333333336" x2="433.33333333333337" y2="33.333333333333336"/>
<line x1="400.0" y1="66.66666666666667" x2="433.33333333333337" y2="66.66666666666667"/>
<line x1="400.0" y1="133.33333333333334" x2="433.33333333333337" y2="133.33333333333334"/>
<line x1="400.0" y1="200.0" x2="433.33333333333337" y2="200.0"/>
<line x1="400.0" y1="266.6666666666667" x2="433.33333333333337" y2="266.6666666666667"/>
<line x1="433.33333333333337" y1="233.33333333333334" x2="433.33333333333337" y2="266.6666666666667"/>
<line x1="400.0" y1="300.0" x2="433.33333333333337" y2="300.0"/>
<line x1="400.0" y1="333.33333333333337" x2="433.33333333333337" y2="333.33333333333337"/>
<line x1="400.0" y1="366.6666666666667" x2="433.33333333333337" y2="366.6666666666667"/>
<line x1="433.33333333333337" y1="400.0" x2="433.33333333333337" y2="433.33333333333337"/>
<line x1="433.33333333333337" y1="433.33333333333337" x2="433.33333333333337" y2="466.6666666666667"/>
<line x1="400.0" y1="500.00000000000006" x2="433.33333333333337" y2="500.00000000000006"/>
<line x1="433.33333333333337" y1="466.6666666666667" x2="433.33333333333337" y2="500.00000000000006"/>
<line x1="433.33333333333337" y1="33.333333333333336" x2="466.6666666666667" y2="33.333333333333336"/>
<line x1="466.6666666666667" y1="33.333333333333336" x2="466.6666666666667" y2="66.66666666666667"/>
<line x1="433.33333333333337" y1="100.0" x2="466.6666666666667" y2="100.0"/>
<line x1="466.6666666666667" y1="66.66666666666667" x2="466.6666666666667" y2="100.0"/>
<line x1="433.33333333333337" y1="133.33333333333334" x2="466.6666666666667" y2="133.33333333333334"/>
<line x1="433.33333333333337" y1="166.66666666666669" x2="466.6666666666667" y2="166.66666666666669"/>
<line x1="466.6666666666667" y1="166.66666666666669" x2="466.6666666666667" y2="200.0"/>
<line x1="433.33333333333337" y1="233.33333333333334" x2="466.6666666666667" y2="233.33333333333334"/>
<line x1="466.6666666666667" y1="200.0" x2="466.6666666666667" y2="233.33333333333334"/>
<line x1="433.33333333333337" y1="300.0" x2="466.6666666666667" y2="300.0"/>
<line x1="466.6666666666667" y1="266.6666666666667" x2="466.6666666666667" y2="300.0"/>
<line x1="433.33333333333337" y1="333.33333333333337" x2="466.6666666666667" y2="333.33333333333337"/>
<line x1="466.6666666666667" y1="333.33333333333337" x2="466.6666666666667" y2="366.6666666666667"/>
<line x1="433.33333333333337" y1="400.0" x2="466.6666666666667" y2="400.0"/>
<line x1="466.6666666666667" y1="366.6666666666667" x2="466.6666666666667" y2="400.0"/>
<line x1="466.6666666666667" y1="400.0" x2="466.6666666666667" y2="433.33333333333337"/>
<line x1="466.6666666666667" y1="433.33333333333337" x2="466.6666666666667" y2="466.6666666666667"/>
<line x1="433.33333333333337" y1="500.00000000000006" x2="466.6666666666667" y2="500.00000000000006"/>
<line x1="500.00000000000006" y1="0.0" x2="500.00000000000006" y2="33.333333333333336"/>
<line x1="500.00000000000006" y1="33.333333333333336" x2="500.00000000000006" y2="66.66666666666667"/>
<line x1="500.00000000000006" y1="66.66666666666667" x2="500.00000000000006" y2="100.0"/>
<line x1="466.6666666666667" y1="133.33333333333334" x2="500.00000000000006" y2="133.33333333333334"/>
<line x1="500.00000000000006" y1="100.0" x2="500.00000000000006" y2="133.33333333333334"/>
<line x1="500.00000000000006" y1="133.33333333333334" x2="500.00000000000006" y2="166.66666666666669"/>
<line x1="500.00000000000006" y1="166.66666666666669" x2="500.00000000000006" y2="200.0"/>
<line x1="500.00000000000006" y1="200.0" x2="500.00000000000006" y2="233.33333333333334"/>
<line x1="500.00000000000006" y1="233.33333333333334" x2="500.00000000000006" y2="266.6666666666667"/>
<line x1="500.00000000000006" y1="266.6666666666667" x2="500.00000000000006" y2="300.0"/>
<line x1="500.00000000000006" y1="300.0" x2="500.00000000000006" y2="333.33333333333337"/>
<line x1="500.00000000000006" y1="333.33333333333337" x2="500.00000000000006" y2="366.6666666666667"/>
<line x1="500.00000000000006" y1="366.6666666666667" x2="500.00000000000006" y2="400.0"/>
<line x1="500.00000000000006" y1="400.0" x2="500.00000000000006" y2="433.33333333333337"/>
<line x1="500.00000000000006" y1="433.33333333333337" x2="500.00000000000006" y2="466.6666666666667"/>
<line x1="500.00000000000006" y1="466.6666666666667" x2="500.00000000000006" y2="500.00000000000006"/>
<line x1="0.0" y1="0.0" x2="33.333333333333336" y2="0.0"/>
<line x1="33.333333333333336" y1="0.0" x2="66.66666666666667" y2="0.0"/>
<line x1="66.66666666666667" y1="0.0" x2="100.0" y2="0.0"/>
<line x1="100.0" y1="0.0" x2="133.33333333333334" y2="0.0"/>
<line x1="133.33333333333334" y1="0.0" x2="166.66666666666669" y2="0.0"/>
<line x1="166.66666666666669" y1="0.0" x2="200.0" y2="0.0"/>
<line x1="200.0" y1="0.0" x2="233.33333333333334" y2="0.0"/>
<line x1="233.33333333333334" y1="0.0" x2="266.6666666666667" y2="0.0"/>
<line x1="266.6666666666667" y1="0.0" x2="300.0" y2="0.0"/>
<line x1="300.0" y1="0.0" x2="333.33333333333337" y2="0.0"/>
<line x1="333.33333333333337" y1="0.0" x2="366.6666666666667" y2="0.0"/>
<line x1="366.6666666666667" y1="0.0" x2="400.0" y2="0.0"/>
<line x1="400.0" y1="0.0" x2="433.33333333333337" y2="0.0"/>
<line x1="433.33333333333337" y1="0.0" x2="466.6666666666667" y2="0.0"/>
<line x1="466.6666666666667" y1="0.0" x2="500.00000000000006" y2="0.0"/>
<line x1="0.0" y1="33.333333333333336" x2="0.0" y2="66.66666666666667"/>
<line x1="0.0" y1="66.66666666666667" x2="0.0" y2="100.0"/>
<line x1="0.0" y1="100.0" x2="0.0" y2="133.33333333333334"/>
<line x1="0.0" y1="133.33333333333334" x2="0.0" y2="166.66666666666669"/>
<line x1="0.0" y1="166.66666666666669" x2="0.0" y2="200.0"/>
<line x1="0.0" y1="200.0" x2="0.0" y2="233.33333333333334"/>
<line x1="0.0" y1="233.33333333333334" x2="0.0" y2="266.6666666666667"/>
<line x1="0.0" y1="266.6666666666667" x2="0.0" y2="300.0"/>
<line x1="0.0" y1="300.0" x2="0.0" y2="333.33333333333337"/>
<line x1="0.0" y1="333.33333333333337" x2="0.0" y2="366.6666666666667"/>
<line x1="0.0" y1="366.6666666666667" x2="0.0" y2="400.0"/>
<line x1="0.0" y1="400.0" x2="0.0" y2="433.33333333333337"/>
<line x1="0.0" y1="433.33333333333337" x2="0.0" y2="466.6666666666667"/>
<line x1="0.0" y1="466.6666666666667" x2="0.0" y2="500.00000000000006"/>
<rect x="471.6666666666667" y="471.6666666666667" width="23.333333333333336" height="23.333333333333336" style="fill:gray" />
<rect x="471.6666666666667" y="438.33333333333337" width="23.333333333333336" height="23.333333333333336" style="fill:gray" />
<rect x="471.6666666666667" y="405.0" width="23.333333333333336" height="23.333333333333336" style="fill:gray" />
<rect x="471.6666666666667" y="371.6666666666667" width="23.333333333333336" height="23.333333333333336" style="fill:gray" />
<rect x="471.6666666666667" y="338.33333333333337" width="23.333333333333336" height="23.333333333333336" style="fill:gray" />
<rect x="471.6666666666667" y="305.0" width="23.333333333333336" height="23.333333333333336" style="fill:gray" />
<rect x="471.6666666666667" y="271.6666666666667" width="23.333333333333336" height="23.333333333333336" style="fill:gray" />
<rect x="471.6666666666667" y="238.33333333333334" width="23.333333333333336" height="23.333333333333336" style="fill:gray" />
<rect x="438.33333333333337" y="238.33333333333334" width="23.333333333333336" height="23.333333333333336" style="fill:gray" />
<rect x="438.33333333333337" y="271.6666666666667" width="23.333333333333336" height="23.333333333333336" style="fill:gray" />
<rect x="405.0" y="271.6666666666667" width="23.333333333333336" height="23.333333333333336" style="fill:gray" />
<rect x="371.6666666666667" y="271.6666666666667" width="23.333333333333336" height="23.333333333333336" style="fill:gray" />
<rect x="338.33333333333337" y="271.6666666666667" width="23.333333333333336" height="23.333333333333336" style="fill:gray" />
<rect x="338.33333333333337" y="305.0" width="23.333333333333336" height="23.333333333333336" style="fill:gray" />
<rect x="305.0" y="305.0" width="23.333333333333336" height="23.333333333333336" style="fill:gray" />
<rect x="305.0" y="271.6666666666667" width="23.333333333333336" height="23.333333333333336" style="fill:gray" />
<rect x="271.6666666666667" y="271.6666666666667" width="23.333333333333336" height="23.333333333333336" style="fill:gray" />
<rect x="238.33333333333334" y="271.6666666666667" width="23.333333333333336" height="23.333333333333336" style="fill:gray" />
<rect x="238.33333333333334" y="305.0" width="23.333333333333336" height="23.333333333333336" style="fill:gray" />
<rect x="238.33333333333334" y="338.33333333333337" width="23.333333333333336" height="23.333333333333336" style="fill:gray" />
<rect x="238.33333333333334" y="371.6666666666667" width="23.333333333333336" height="23.333333333333336" style="fill:gray" />
<rect x="271.6666666666667" y="371.6666666666667" width="23.333333333333336" height="23.333333333333336" style="fill:gray" />
<rect x="271.6666666666667" y="338.33333333333337" width="23.333333333333336" height="23.333333333333336" style="fill:gray" />
<rect x="305.0" y="338.33333333333337" width="23.333333333333336" height="23.333333333333336" style="fill:gray" />
<rect x="338.33333333333337" y="338.33333333333337" width="23.333333333333336" height="23.333333333333336" style="fill:gray" />
<rect x="371.6666666666667" y="338.33333333333337" width="23.333333333333336" height="23.333333333333336" style="fill:gray" />
<rect x="405.0" y="338.33333333333337" width="23.333333333333336" height="23.333333333333336" style="fill:gray" />
<rect x="438.33333333333337" y="338.33333333333337" width="23.333333333333336" height="23.333333333333336" style="fill:gray" />
<rect x="438.33333333333337" y="371.6666666666667" width="23.333333333333336" height="23.333333333333336" style="fill:gray" />
<rect x="405.0" y="371.6666666666667" width="23.333333333333336" height="23.333333333333336" style="fill:gray" />
<rect x="405.0" y="405.0" width="23.333333333333336" height="23.333333333333336" style="fill:gray" />
<rect x="405.0" y="438.33333333333337" width="23.333333333333336" height="23.333333333333336" style="fill:gray" />
<rect x="405.0" y="471.6666666666667" width="23.333333333333336" height="23.333333333333336" style="fill:gray" />
<rect x="371.6666666666667" y="471.6666666666667" width="23.333333333333336" height="23.333333333333336" style="fill:gray" />
<rect x="371.6666666666667" y="438.33333333333337" width="23.333333333333336" height="23.333333333333336" style="fill:gray" />
<rect x="338.33333333333337" y="438.33333333333337" width="23.333333333333336" height="23.333333333333336" style="fill:gray" />
<rect x="305.0" y="438.33333333333337" width="23.333333333333336" height="23.333333333333336" style="fill:gray" />
<rect x="305.0" y="471.6666666666667" width="23.333333333333336" height="23.333333333333336" style="fill:gray" />
<rect x="271.6666666666667" y="471.6666666666667" width="23.333333333333336" height="23.333333333333336" style="fill:gray" />
<rect x="238.33333333333334" y="471.6666666666667" width="23.333333333333336" height="23.333333333333336" style="fill:gray" />
<rect x="238.33333333333334" y="438.33333333333337" width="23.333333333333336" height="23.333333333333336" style="fill:gray" />
<rect x="271.6666666666667" y="438.33333333333337" width="23.333333333333336" height="23.333333333333336" style="fill:gray" />
<rect x="271.6666666666667" y="405.0" width="23.333333333333336" height="23.333333333333336" style="fill:gray" />
<rect x="238.33333333333334" y="405.0" width="23.333333333333336" height="23.333333333333336" style="fill:gray" />
<rect x="205.0" y="405.0" width="23.333333333333336" height="23.333333333333336" style="fill:gray" />
<rect x="171.66666666666669" y="405.0" width="23.333333333333336" height="23.333333333333336" style="fill:gray" />
<rect x="138.33333333333334" y="405.0" width="23.333333333333336" height="23.333333333333336" style="fill:gray" />
<rect x="138.33333333333334" y="438.33333333333337" width="23.333333333333336" height="23.333333333333336" style="fill:gray" />
<rect x="105.0" y="438.33333333333337" width="23.333333333333336" height="23.333333333333336" style="fill:gray" />
<rect x="105.0" y="471.6666666666667" width="23.333333333333336" height="23.333333333333336" style="fill:gray" />
<rect x="71.66666666666667" y="471.6666666666667" width="23.333333333333336" height="23.333333333333336" style="fill:gray" />
<rect x="71.66666666666667" y="438.33333333333337" width="23.333333333333336" height="23.333333333333336" style="fill:gray" />
<rect x="38.333333333333336" y="438.33333333333337" width="23.333333333333336" height="23.333333333333336" style="fill:gray" />
<rect x="38.333333333333336" y="405.0" width="23.333333333333336" height="23.333333333333336" style="fill:gray" />
<rect x="5.0" y="405.0" width="23.333333333333336" height="23.333333333333336" style="fill:gray" />
<rect x="5.0" y="371.6666666666667" width="23.333333333333336" height="23.333333333333336" style="fill:gray" />
<rect x="5.0" y="338.33333333333337" width="23.333333333333336" height="23.333333333333336" style="fill:gray" />
<rect x="5.0" y="305.0" width="23.333333333333336" height="23.333333333333336" style="fill:gray" />
<rect x="5.0" y="271.6666666666667" width="23.333333333333336" height="23.333333333333336" style="fill:gray" />
<rect x="38.333333333333336" y="271.6666666666667" width="23.333333333333336" height="23.333333333333336" style="fill:gray" />
<rect x="38.333333333333336" y="305.0" width="23.333333333333336" height="23.333333333333336" style="fill:gray" />
<rect x="38.333333333333336" y="338.33333333333337" width="23.333333333333336" height="23.333333333333336" style="fill:gray" />
<rect x="38.333333333333336" y="371.6666666666667" width="23.333333333333336" height="23.333333333333336" style="fill:gray" />
<rect x="71.66666666666667" y="371.6666666666667" width="23.333333333333336" height="23.333333333333336" style="fill:gray" />
<rect x="71.66666666666667" y="405.0" width="23.333333333333336" height="23.333333333333336" style="fill:gray" />
<rect x="105.0" y="405.0" width="23.333333333333336" height="23.333333333333336" style="fill:gray" />
<rect x="105.0" y="371.6666666666667" width="23.333333333333336" height="23.333333333333336" style="fill:gray" />
<rect x="138.33333333333334" y="371.6666666666667" width="23.333333333333336" height="23.333333333333336" style="fill:gray" />
<rect x="171.66666666666669" y="371.6666666666667" width="23.333333333333336" height="23.333333333333336" style="fill:gray" />
<rect x="205.0" y="371.6666666666667" width="23.333333333333336" height="23.333333333333336" style="fill:gray" />
<rect x="205.0" y="338.33333333333337" width="23.333333333333336" height="23.333333333333336" style="fill:gray" />
<rect x="205.0" y="305.0" width="23.333333333333336" height="23.333333333333336" style="fill:gray" />
<rect x="205.0" y="271.6666666666667" width="23.333333333333336" height="23.333333333333336" style="fill:gray" />
<rect x="171.66666666666669" y="271.6666666666667" width="23.333333333333336" height="23.333333333333336" style="fill:gray" />
<rect x="138.33333333333334" y="271.6666666666667" width="23.333333333333336" height="23.333333333333336" style="fill:gray" />
<rect x="138.33333333333334" y="238.33333333333334" width="23.333333333333336" height="23.333333333333336" style="fill:gray" />
<rect x="171.66666666666669" y="238.33333333333334" width="23.333333333333336" height="23.333333333333336" style="fill:gray" />
<rect x="171.66666666666669" y="205.0" width="23.333333333333336" height="23.333333333333336" style="fill:gray" />
<rect x="205.0" y="205.0" width="23.333333333333336" height="23.333333333333336" style="fill:gray" />
<rect x="205.0" y="238.33333333333334" width="23.333333333333336" height="23.333333333333336" style="fill:gray" />
<rect x="238.33333333333334" y="238.33333333333334" width="23.333333333333336" height="23.333333333333336" style="fill:gray" />
<rect x="271.6666666666667" y="238.33333333333334" width="23.333333333333336" height="23.333333333333336" style="fill:gray" />
<rect x="305.0" y="238.33333333333334" width="23.333333333333336" height="23.333333333333336" style="fill:gray" />
<rect x="338.33333333333337" y="238.33333333333334" width="23.333333333333336" height="23.333333333333336" style="fill:gray" />
<rect x="338.33333333333337" y="205.0" width="23.333333333333336" height="23.333333333333336" style="fill:gray" />
<rect x="371.6666666666667" y="205.0" width="23.333333333333336" height="23.333333333333336" style="fill:gray" />
<rect x="371.6666666666667" y="171.66666666666669" width="23.333333333333336" height="23.333333333333336" style="fill:gray" />
<rect x="338.33333333333337" y="171.66666666666669" width="23.333333333333336" height="23.333333333333336" style="fill:gray" />
<rect x="305.0" y="171.66666666666669" width="23.333333333333336" height="23.333333333333336" style="fill:gray" />
<rect x="305.0" y="138.33333333333334" width="23.333333333333336" height="23.333333333333336" style="fill:gray" />
<rect x="305.0" y="105.0" width="23.333333333333336" height="23.333333333333336" style="fill:gray" />
<rect x="305.0" y="71.66666666666667" width="23.333333333333336" height="23.333333333333336" style="fill:gray" />
<rect x="305.0" y="38.333333333333336" width="23.333333333333336" height="23.333333333333336" style="fill:gray" />
<rect x="305.0" y="5.0" width="23.333333333333336" height="23.333333333333336" style="fill:gray" />
<rect x="271.6666666666667" y="5.0" width="23.333333333333336" height="23.333333333333336" style="fill:gray" />
<rect x="271.6666666666667" y="38.333333333333336" width="23.333333333333336" height="23.333333333333336" style="fill:gray" />
<rect x="271.6666666666667" y="71.66666666666667" width="23.333333333333336" height="23.333333333333336" style="fill:gray" />
<rect x="238.33333333333334" y="71.66666666666667" width="23.333333333333336" height="23.333333333333336" style="fill:gray" />
<rect x="238.33333333333334" y="105.0" width="23.333333333333336" height="23.333333333333336" style="fill:gray" />
<rect x="238.33333333333334" y="138.33333333333334" width="23.333333333333336" height="23.333333333333336" style="fill:gray" />
<rect x="271.6666666666667" y="138.33333333333334" width="23.333333333333336" height="23.333333333333336" style="fill:gray" />
<rect x="271.6666666666667" y="171.66666666666669" width="23.333333333333336" height="23.333333333333336" style="fill:gray" />
<rect x="271.6666666666667" y="205.0" width="23.333333333333336" height="23.333333333333336" style="fill:gray" />
<rect x="238.33333333333334" y="205.0" width="23.333333333333336" height="23.333333333333336" style="fill:gray" />
<rect x="238.33333333333334" y="171.66666666666669" width="23.333333333333336" height="23.333333333333336" style="fill:gray" />
<rect x="205.0" y="171.66666666666669" width="23.333333333333336" height="23.333333333333336" style="fill:gray" />
<rect x="171.66666666666669" y="171.66666666666669" width="23.333333333333336" height="23.333333333333336" style="fill:gray" />
<rect x="138.33333333333334" y="171.66666666666669" width="23.333333333333336" height="23.333333333333336" style="fill:gray" />
<rect x="138.33333333333334" y="205.0" width="23.333333333333336" height="23.333333333333336" style="fill:gray" />
<rect x="105.0" y="205.0" width="23.333333333333336" height="23.333333333333336" style="fill:gray" />
<rect x="71.66666666666667" y="205.0" width="23.333333333333336" height="23.333333333333336" style="fill:gray" />
<rect x="38.333333333333336" y="205.0" width="23.333333333333336" height="23.333333333333336" style="fill:gray" />
<rect x="5.0" y="205.0" width="23.333333333333336" height="23.333333333333336" style="fill:gray" />
<rect x="5.0" y="171.66666666666669" width="23.333333333333336" height="23.333333333333336" style="fill:gray" />
<rect x="38.333333333333336" y="171.66666666666669" width="23.333333333333336" height="23.333333333333336" style="fill:gray" />
<rect x="38.333333333333336" y="138.33333333333334" width="23.333333333333336" height="23.333333333333336" style="fill:gray" />
<rect x="5.0" y="138.33333333333334" width="23.333333333333336" height="23.333333333333336" style="fill:gray" />
<rect x="5.0" y="105.0" width="23.333333333333336" height="23.333333333333336" style="fill:gray" />
<rect x="5.0" y="71.66666666666667" width="23.333333333333336" height="23.333333333333336" style="fill:gray" />
<rect x="38.333333333333336" y="71.66666666666667" width="23.333333333333336" height="23.333333333333336" style="fill:gray" />
<rect x="71.66666666666667" y="71.66666666666667" width="23.333333333333336" height="23.333333333333336" style="fill:gray" />
<rect x="71.66666666666667" y="38.333333333333336" width="23.333333333333336" height="23.333333333333336" style="fill:gray" />
<rect x="71.66666666666667" y="5.0" width="23.333333333333336" height="23.333333333333336" style="fill:gray" />
<rect x="38.333333333333336" y="5.0" width="23.333333333333336" height="23.333333333333336" style="fill:gray" />
<rect x="38.333333333333336" y="38.333333333333336" width="23.333333333333336" height="23.333333333333336" style="fill:gray" />
<rect x="5.0" y="38.333333333333336" width="23.333333333333336" height="23.333333333333336" style="fill:gray" />
<rect x="5.0" y="5.0" width="23.333333333333336" height="23.333333333333336" style="fill:gray" />
<rect x="5.0" y="5.0" width="23.333333333333336" height="23.333333333333336" style="fill:green" />
<rect x="471.6666666666667" y="471.6666666666667" width="23.333333333333336" height="23.333333333333336" style="fill:red" />
</svg>
